<svg xmlns="http://www.w3.org/2000/svg" version="1.1" xmlns:xlink="http://www.w3.org/1999/xlink" xmlns:svgjs="http://svgjs.dev/svgjs" width="1000" height="820" viewBox="0 0 1000 820"><g transform="matrix(1,0,0,1,0.6604515618627715,0.3319838056680169)"><svg viewBox="0 0 301 247" data-background-color="#ffffff" preserveAspectRatio="xMidYMid meet" height="820" width="1000" xmlns="http://www.w3.org/2000/svg" xmlns:xlink="http://www.w3.org/1999/xlink"><defs></defs><g id="tight-bounds" transform="matrix(1,0,0,1,-0.19879588159670902,-0.09999999999999432)"><svg viewBox="0 0 301.3975898678135 247.2" height="247.2" width="301.3975898678135"><g><svg viewBox="0 0 395.52 324.3972323829163" height="247.2" width="301.3975898678135"><g transform="matrix(1,0,0,1,0,196.47884144246245)"><svg viewBox="0 0 395.52 127.9183909404538" height="127.9183909404538" width="395.52"><g><svg viewBox="0 0 395.52 127.9183909404538" height="127.9183909404538" width="395.52"><g><svg viewBox="0 0 395.52 83.42917180380594" height="83.42917180380594" width="395.52"><g transform="matrix(1,0,0,1,0,0)"><svg width="395.52" viewBox="0.3500000238418579 -38.70000076293945 186.52999877929688 39.35000228881836" height="83.42917180380594" data-palette-color="#113f67"><path d="M25.95 0L21.15 0 18.85-8.75 7.3-8.75 5 0 0.35 0 10.3-34.4 16-34.4 25.95 0ZM13.1-30.7L8.25-12.4 17.9-12.4 13.1-30.7ZM30.35-26.3L34.85-26.3 34.85 0 30.35 0 30.35-26.3ZM32.6-38.7Q33.9-38.7 34.72-37.85 35.55-37 35.55-35.75L35.55-35.75Q35.55-34.5 34.75-33.68 33.95-32.85 32.6-32.85L32.6-32.85Q31.3-32.85 30.47-33.68 29.65-34.5 29.65-35.75L29.65-35.75Q29.65-37 30.47-37.85 31.3-38.7 32.6-38.7L32.6-38.7ZM53.75-26.9Q55.05-26.9 56-26.6L56-26.6 55.25-22.25Q54.3-22.55 53.2-22.55L53.2-22.55Q51-22.55 49.62-20.8 48.25-19.05 47.45-15.45L47.45-15.45 47.45 0 42.95 0 42.95-26.3 46.85-26.3 47.2-21.1Q49.15-26.9 53.75-26.9L53.75-26.9ZM84.69-26.95Q87.54-26.95 89.24-24.83 90.94-22.7 90.94-19.15L90.94-19.15 90.94 0 86.49 0 86.49-18.65Q86.49-23.45 83.39-23.45L83.39-23.45Q80.39-23.45 77.89-18.85L77.89-18.85 77.89 0 73.44 0 73.44-18.65Q73.44-23.45 70.34-23.45L70.34-23.45Q67.29-23.45 64.84-18.85L64.84-18.85 64.84 0 60.39 0 60.39-26.3 64.29-26.3 64.64-22.45Q67.54-26.95 71.64-26.95L71.64-26.95Q73.79-26.95 75.29-25.7 76.79-24.45 77.44-22.15L77.44-22.15Q80.49-26.95 84.69-26.95L84.69-26.95ZM115.24-6Q115.24-4.4 115.69-3.63 116.14-2.85 117.09-2.45L117.09-2.45 116.14 0.6Q114.19 0.3 113.09-0.6 111.99-1.5 111.54-3.35L111.54-3.35Q108.99 0.65 104.39 0.65L104.39 0.65Q100.89 0.65 98.84-1.53 96.79-3.7 96.79-7.35L96.79-7.35Q96.79-11.55 99.54-13.75 102.29-15.95 107.39-15.95L107.39-15.95 110.79-15.95 110.79-18.2Q110.79-20.95 109.67-22.18 108.54-23.4 105.99-23.4L105.99-23.4Q103.24-23.4 99.59-22L99.59-22 98.49-25.15Q102.89-26.95 106.69-26.95L106.69-26.95Q115.24-26.95 115.24-18.4L115.24-18.4 115.24-6ZM105.44-2.75Q108.94-2.75 110.79-6.85L110.79-6.85 110.79-13.05 107.89-13.05Q101.39-13.05 101.39-7.6L101.39-7.6Q101.39-5.25 102.44-4 103.49-2.75 105.44-2.75L105.44-2.75ZM123.34-26.3L127.84-26.3 127.84 0 123.34 0 123.34-26.3ZM125.59-38.7Q126.89-38.7 127.71-37.85 128.54-37 128.54-35.75L128.54-35.75Q128.54-34.5 127.74-33.68 126.94-32.85 125.59-32.85L125.59-32.85Q124.29-32.85 123.46-33.68 122.64-34.5 122.64-35.75L122.64-35.75Q122.64-37 123.46-37.85 124.29-38.7 125.59-38.7L125.59-38.7ZM140.89 0.65Q138.49 0.65 137.09-0.8 135.69-2.25 135.69-4.85L135.69-4.85 135.69-36.95 140.19-37.45 140.19-5Q140.19-3.05 141.79-3.05L141.79-3.05Q142.44-3.05 143.24-3.35L143.24-3.35 144.24-0.2Q142.64 0.65 140.89 0.65L140.89 0.65ZM167.58-13.95Q167.58-12.9 167.48-11.6L167.48-11.6 152.18-11.6Q152.38-7 154.03-4.98 155.68-2.95 158.53-2.95L158.53-2.95Q160.33-2.95 161.76-3.5 163.18-4.05 164.73-5.3L164.73-5.3 166.73-2.65Q163.03 0.65 158.33 0.65L158.33 0.65Q153.18 0.65 150.36-2.93 147.53-6.5 147.53-12.95L147.53-12.95Q147.53-19.4 150.23-23.18 152.93-26.95 157.73-26.95L157.73-26.95Q162.48-26.95 165.03-23.58 167.58-20.2 167.58-13.95L167.58-13.95ZM163.23-14.75L163.23-15.3Q163.23-23.55 157.78-23.55L157.78-23.55Q155.28-23.55 153.83-21.48 152.38-19.4 152.18-14.75L152.18-14.75 163.23-14.75ZM184.63-26.9Q185.93-26.9 186.88-26.6L186.88-26.6 186.13-22.25Q185.18-22.55 184.08-22.55L184.08-22.55Q181.88-22.55 180.51-20.8 179.13-19.05 178.33-15.45L178.33-15.45 178.33 0 173.83 0 173.83-26.3 177.73-26.3 178.08-21.1Q180.03-26.9 184.63-26.9L184.63-26.9Z" opacity="1" transform="matrix(1,0,0,1,0,0)" fill="#113f67" class="undefined-text-0" data-fill-palette-color="primary" id="text-0"></path></svg></g></svg></g><g transform="matrix(1,0,0,1,75.54431999999998,103.12479696656123)"><svg viewBox="0 0 244.43136 24.793593973892573" height="24.793593973892573" width="244.43136"><g transform="matrix(1,0,0,1,0,0)"><svg width="244.43136" viewBox="0.25 -36.5 467.260009765625 47.400001525878906" height="24.793593973892573" data-palette-color="#87c0cd"><path d="M9 10.9L9 10.9Q6.35 10.9 4.35 9.93 2.35 8.95 1.3 7.08 0.25 5.2 0.25 2.6L0.25 2.6Q0.25 0.25 1.18-2.6 2.1-5.45 4.55-8.45 7-11.45 11.5-14.2L11.5-14.2 11.5-29.75 4.25-29.75 4.25-35 17.45-35 17.45 1.7Q17.45 4.35 16.48 6.45 15.5 8.55 13.63 9.73 11.75 10.9 9 10.9ZM8.6 5.55L8.6 5.55Q9.45 5.55 10.1 5.1 10.75 4.65 11.1 3.83 11.45 3 11.45 1.85L11.45 1.85 11.45-8.1Q8.7-5.9 7.5-3.9 6.3-1.9 6.05-0.38 5.8 1.15 5.8 1.95L5.8 1.95Q5.8 3.7 6.65 4.63 7.5 5.55 8.6 5.55ZM36.75 0.6L36.75 0.6Q33.05 0.6 30.3-0.88 27.55-2.35 26.05-4.95 24.55-7.55 24.55-10.8L24.55-10.8 24.55-25.5 30.3-25.5 30.3-10.85Q30.3-8.9 31.17-7.43 32.05-5.95 33.52-5.13 35-4.3 36.75-4.3L36.75-4.3Q38.5-4.3 39.97-5.13 41.45-5.95 42.32-7.43 43.2-8.9 43.2-10.85L43.2-10.85 43.2-25.5 48.95-25.5 48.95-10.8Q48.95-7.55 47.42-4.95 45.9-2.35 43.17-0.88 40.45 0.6 36.75 0.6ZM68.65 0L55.75 0 55.75-4.9 68.05-4.9Q68.95-4.9 69.62-5.3 70.3-5.7 70.67-6.35 71.05-7 71.05-7.7L71.05-7.7Q71.05-8.5 70.7-9.1 70.34-9.7 69.7-10.08 69.05-10.45 68.2-10.45L68.2-10.45 63.2-10.45Q60.75-10.45 58.85-11.25 56.95-12.05 55.85-13.73 54.75-15.4 54.75-17.95L54.75-17.95Q54.75-20 55.77-21.7 56.8-23.4 58.55-24.45 60.3-25.5 62.5-25.5L62.5-25.5 74.34-25.5 74.34-20.6 63.05-20.6Q61.9-20.6 61.15-19.88 60.4-19.15 60.4-18.1L60.4-18.1Q60.4-17.1 61.15-16.35 61.9-15.6 63.15-15.6L63.15-15.6 68-15.6Q70.75-15.6 72.7-14.75 74.65-13.9 75.67-12.2 76.7-10.5 76.7-7.9L76.7-7.9Q76.7-5.8 75.65-3.98 74.59-2.15 72.77-1.07 70.95 0 68.65 0L68.65 0ZM96.79 0L90.44 0Q87.04 0 85.12-1.95 83.19-3.9 83.19-7.25L83.19-7.25 83.19-31.9 88.89-31.9 88.89-7.5Q88.89-6.35 89.59-5.63 90.29-4.9 91.44-4.9L91.44-4.9 96.79-4.9 96.79 0ZM96.84-20.6L78.79-20.6 78.79-25.5 96.84-25.5 96.84-20.6ZM128.29 0L115.39 0 115.39-4.9 127.69-4.9Q128.59-4.9 129.26-5.3 129.94-5.7 130.31-6.35 130.69-7 130.69-7.7L130.69-7.7Q130.69-8.5 130.34-9.1 129.99-9.7 129.34-10.08 128.69-10.45 127.84-10.45L127.84-10.45 122.84-10.45Q120.39-10.45 118.49-11.25 116.59-12.05 115.49-13.73 114.39-15.4 114.39-17.95L114.39-17.95Q114.39-20 115.41-21.7 116.44-23.4 118.19-24.45 119.94-25.5 122.14-25.5L122.14-25.5 133.99-25.5 133.99-20.6 122.69-20.6Q121.54-20.6 120.79-19.88 120.04-19.15 120.04-18.1L120.04-18.1Q120.04-17.1 120.79-16.35 121.54-15.6 122.79-15.6L122.79-15.6 127.64-15.6Q130.39-15.6 132.34-14.75 134.29-13.9 135.31-12.2 136.34-10.5 136.34-7.9L136.34-7.9Q136.34-5.8 135.29-3.98 134.24-2.15 132.41-1.07 130.59 0 128.29 0L128.29 0ZM161.79 0L154.94 0Q150.64 0 147.41-1.63 144.19-3.25 142.39-6.13 140.59-9 140.59-12.75L140.59-12.75Q140.59-16.7 142.19-19.7 143.79-22.7 146.59-24.4 149.39-26.1 153.04-26.1L153.04-26.1Q157.14-26.1 159.79-24.35 162.44-22.6 163.71-19.65 164.99-16.7 164.99-13.05L164.99-13.05Q164.99-12.55 164.94-11.9 164.89-11.25 164.79-10.9L164.79-10.9 146.69-10.9Q146.99-8.9 148.14-7.58 149.29-6.25 151.04-5.58 152.79-4.9 154.94-4.9L154.94-4.9 161.79-4.9 161.79 0ZM146.64-14.8L146.64-14.8 159.24-14.8Q159.19-15.75 158.96-16.7 158.74-17.65 158.26-18.5 157.79-19.35 157.06-19.98 156.34-20.6 155.34-20.98 154.34-21.35 153.04-21.35L153.04-21.35Q151.54-21.35 150.39-20.78 149.24-20.2 148.44-19.28 147.64-18.35 147.21-17.18 146.79-16 146.64-14.8ZM176.08 0L170.33 0 170.33-14.7Q170.33-18 171.83-20.58 173.33-23.15 176.08-24.63 178.83-26.1 182.53-26.1L182.53-26.1Q186.23-26.1 188.96-24.63 191.68-23.15 193.18-20.58 194.68-18 194.68-14.7L194.68-14.7 194.68 0 188.98 0 188.98-14.65Q188.98-16.6 188.08-18.07 187.18-19.55 185.71-20.38 184.23-21.2 182.48-21.2L182.48-21.2Q180.78-21.2 179.31-20.38 177.83-19.55 176.96-18.07 176.08-16.6 176.08-14.65L176.08-14.65 176.08 0ZM213.43 0.6L213.43 0.6Q217.33 0.6 220.33-1.05 223.33-2.7 225.01-5.78 226.68-8.85 226.68-13.05L226.68-13.05 226.68-36.5 220.93-36.5 220.93-21.65 220.88-21.65Q220.08-23 218.78-24 217.48-25 215.88-25.55 214.28-26.1 212.48-26.1L212.48-26.1Q208.83-26.1 206.06-24.48 203.28-22.85 201.71-19.95 200.13-17.05 200.13-13.15L200.13-13.15Q200.13-10.1 201.06-7.58 201.98-5.05 203.71-3.2 205.43-1.35 207.88-0.38 210.33 0.6 213.43 0.6ZM213.43-4.3L213.43-4.3Q211.23-4.3 209.53-5.38 207.83-6.45 206.88-8.35 205.93-10.25 205.93-12.75L205.93-12.75Q205.93-15.2 206.88-17.1 207.83-19 209.51-20.1 211.18-21.2 213.38-21.2L213.38-21.2Q215.58-21.2 217.28-20.13 218.98-19.05 219.93-17.15 220.88-15.25 220.88-12.75L220.88-12.75Q220.88-10.25 219.93-8.35 218.98-6.45 217.28-5.38 215.58-4.3 213.43-4.3ZM261.78 0L255.43 0Q252.03 0 250.1-1.95 248.18-3.9 248.18-7.25L248.18-7.25 248.18-31.9 253.88-31.9 253.88-7.5Q253.88-6.35 254.58-5.63 255.28-4.9 256.43-4.9L256.43-4.9 261.78-4.9 261.78 0ZM261.83-20.6L243.78-20.6 243.78-25.5 261.83-25.5 261.83-20.6ZM272.97 0L267.22 0 267.22-36.5 272.97-36.5 272.97-22.95Q274.52-24.6 276.57-25.35 278.62-26.1 280.72-26.1L280.72-26.1Q284.22-26.1 286.7-24.63 289.17-23.15 290.47-20.58 291.77-18 291.77-14.7L291.77-14.7 291.77 0 286.07 0 286.07-14.65Q286.07-16.6 285.15-18.07 284.22-19.55 282.75-20.38 281.27-21.2 279.47-21.2L279.47-21.2Q277.77-21.2 276.27-20.4 274.77-19.6 273.87-18.15 272.97-16.7 272.97-14.85L272.97-14.85 272.97 0ZM318.42 0L311.57 0Q307.27 0 304.05-1.63 300.82-3.25 299.02-6.13 297.22-9 297.22-12.75L297.22-12.75Q297.22-16.7 298.82-19.7 300.42-22.7 303.22-24.4 306.02-26.1 309.67-26.1L309.67-26.1Q313.77-26.1 316.42-24.35 319.07-22.6 320.35-19.65 321.62-16.7 321.62-13.05L321.62-13.05Q321.62-12.55 321.57-11.9 321.52-11.25 321.42-10.9L321.42-10.9 303.32-10.9Q303.62-8.9 304.77-7.58 305.92-6.25 307.67-5.58 309.42-4.9 311.57-4.9L311.57-4.9 318.42-4.9 318.42 0ZM303.27-14.8L303.27-14.8 315.87-14.8Q315.82-15.75 315.6-16.7 315.37-17.65 314.9-18.5 314.42-19.35 313.7-19.98 312.97-20.6 311.97-20.98 310.97-21.35 309.67-21.35L309.67-21.35Q308.17-21.35 307.02-20.78 305.87-20.2 305.07-19.28 304.27-18.35 303.85-17.18 303.42-16 303.27-14.8ZM359.97 0L353.12 0Q348.82 0 345.59-1.63 342.37-3.25 340.57-6.13 338.77-9 338.77-12.75L338.77-12.75Q338.77-16.7 340.37-19.7 341.97-22.7 344.77-24.4 347.57-26.1 351.22-26.1L351.22-26.1Q355.32-26.1 357.97-24.35 360.62-22.6 361.89-19.65 363.17-16.7 363.17-13.05L363.17-13.05Q363.17-12.55 363.12-11.9 363.07-11.25 362.97-10.9L362.97-10.9 344.87-10.9Q345.17-8.9 346.32-7.58 347.47-6.25 349.22-5.58 350.97-4.9 353.12-4.9L353.12-4.9 359.97-4.9 359.97 0ZM344.82-14.8L344.82-14.8 357.42-14.8Q357.37-15.75 357.14-16.7 356.92-17.65 356.44-18.5 355.97-19.35 355.24-19.98 354.52-20.6 353.52-20.98 352.52-21.35 351.22-21.35L351.22-21.35Q349.72-21.35 348.57-20.78 347.42-20.2 346.62-19.28 345.82-18.35 345.39-17.18 344.97-16 344.82-14.8ZM374.21 0L368.51 0 368.51-15.25Q368.51-18.2 369.91-20.68 371.31-23.15 373.96-24.63 376.61-26.1 380.31-26.1L380.31-26.1Q382.11-26.1 383.76-25.65 385.41-25.2 386.84-24.23 388.26-23.25 389.26-21.8L389.26-21.8 389.31-21.8Q390.31-23.25 391.74-24.23 393.16-25.2 394.84-25.65 396.51-26.1 398.31-26.1L398.31-26.1Q402.06-26.1 404.69-24.63 407.31-23.15 408.71-20.68 410.11-18.2 410.11-15.25L410.11-15.25 410.11 0 404.41 0 404.41-15.25Q404.41-16.9 403.59-18.25 402.76-19.6 401.41-20.4 400.06-21.2 398.31-21.2L398.31-21.2Q396.61-21.2 395.21-20.4 393.81-19.6 392.99-18.25 392.16-16.9 392.16-15.25L392.16-15.25 392.16 0 386.46 0 386.46-15.25Q386.46-16.9 385.61-18.25 384.76-19.6 383.39-20.4 382.01-21.2 380.31-21.2L380.31-21.2Q378.61-21.2 377.24-20.4 375.86-19.6 375.04-18.25 374.21-16.9 374.21-15.25L374.21-15.25 374.21 0ZM427.36 0.6L427.36 0.6Q423.71 0.6 421.06-1.2 418.41-3 416.99-6.03 415.56-9.05 415.56-12.7L415.56-12.7Q415.56-16.5 417.19-19.53 418.81-22.55 421.84-24.33 424.86-26.1 429.06-26.1L429.06-26.1Q433.21-26.1 436.14-24.33 439.06-22.55 440.64-19.53 442.21-16.5 442.21-12.8L442.21-12.8 442.21 0 436.46 0 436.46-4.75 436.36-4.75Q435.61-3.35 434.41-2.13 433.21-0.9 431.46-0.15 429.71 0.6 427.36 0.6ZM428.91-4.3L428.91-4.3Q431.16-4.3 432.84-5.43 434.51-6.55 435.46-8.47 436.41-10.4 436.36-12.8L436.36-12.8Q436.36-15.2 435.46-17.07 434.56-18.95 432.91-20.08 431.26-21.2 428.96-21.2L428.96-21.2Q426.56-21.2 424.86-20.08 423.16-18.95 422.26-17.05 421.36-15.15 421.36-12.75L421.36-12.75Q421.36-10.4 422.26-8.47 423.16-6.55 424.84-5.43 426.51-4.3 428.91-4.3ZM454.86 0L449.11 0 449.11-25.5 454.86-25.5 454.86 0ZM451.96-29.05L451.96-29.05Q450.46-29.05 449.36-30.15 448.26-31.25 448.26-32.75L448.26-32.75Q448.26-34.25 449.36-35.35 450.46-36.45 451.96-36.45L451.96-36.45Q453.51-36.45 454.58-35.35 455.66-34.25 455.66-32.75L455.66-32.75Q455.66-31.25 454.58-30.15 453.51-29.05 451.96-29.05ZM467.51 0L461.76 0 461.76-36.5 467.51-36.5 467.51 0Z" opacity="1" transform="matrix(1,0,0,1,0,0)" fill="#87c0cd" class="undefined-text-1" data-fill-palette-color="secondary" id="text-1"></path></svg></g></svg></g></svg></g></svg></g><g transform="matrix(1,0,0,1,109.3683918601464,0)"><svg viewBox="0 0 176.78321627970718 176.78321627970718" height="176.78321627970718" width="176.78321627970718"><g><svg></svg></g><g id="icon-0"><svg viewBox="0 0 176.78321627970718 176.78321627970718" height="176.78321627970718" width="176.78321627970718"><g><path d="M53.035 176.783c-29.29 0-53.035-23.745-53.035-53.035v-70.713c0-29.29 23.745-53.035 53.035-53.035h70.713c29.29 0 53.035 23.745 53.035 53.035v70.713c0 29.29-23.745 53.035-53.035 53.035z" fill="#3742c0" data-fill-palette-color="accent"></path></g><g transform="matrix(1,0,0,1,50.504747339853594,62.12678750312235)"><svg viewBox="0 0 75.77372159999999 52.529641273462474" height="52.529641273462474" width="75.77372159999999"><g><svg xmlns="http://www.w3.org/2000/svg" xmlns:xlink="http://www.w3.org/1999/xlink" version="1.1" x="0" y="0" viewBox="20.3700008392334 30.697999954223633 70.11100006103516 48.60399627685547" enable-background="new 0 0 100 100" xml:space="preserve" height="52.529641273462474" width="75.77372159999999" class="icon-x-0" data-fill-palette-color="quaternary" id="x-0"><g fill="#ffffff" data-fill-palette-color="quaternary"><path d="M25.452 63.114V38.787l24.15 22.888 24.111-22.838v12.873l5.082 2.938V30.698H20.37v37.498h37.479c1.139-1.816 2.525-3.544 4.16-5.082H25.452zM69.55 35.78L49.603 54.677 29.659 35.78H69.55z" fill="#ffffff" data-fill-palette-color="quaternary"></path><path d="M90.481 66.548l-17.099-9.866v5.558c-12.314 1.647-15.302 17.062-15.302 17.062s3.638-7.265 15.302-8.119v5.231L90.481 66.548z" fill="#ffffff" data-fill-palette-color="quaternary"></path></g></svg></g></svg></g></svg></g></svg></g><g></g></svg></g></svg><rect width="301.3975898678135" height="247.2" fill="none" stroke="none" visibility="hidden"></rect></g></svg></g></svg>